<mxfile host="app.diagrams.net" agent="Mozilla/5.0 (Windows NT 10.0; Win64; x64) AppleWebKit/537.36 (KHTML, like Gecko) Chrome/131.0.0.0 Safari/537.36 Edg/131.0.0.0" version="25.0.3">
  <diagram name="配补调系统" id="kHPx5oa-xz7f5TYzUW8R">
    <mxGraphModel dx="1400" dy="855" grid="1" gridSize="10" guides="1" tooltips="1" connect="1" arrows="1" fold="1" page="1" pageScale="1" pageWidth="827" pageHeight="1169" math="0" shadow="0">
      <root>
        <mxCell id="0" />
        <mxCell id="1" parent="0" />
        <mxCell id="RBS5-hGJfneCesPjs3Ac-35" value="" style="rounded=0;whiteSpace=wrap;html=1;" vertex="1" parent="1">
          <mxGeometry x="10" y="10" width="680" height="400" as="geometry" />
        </mxCell>
        <mxCell id="RBS5-hGJfneCesPjs3Ac-36" value="凤禧商品配补调系统V1.0" style="text;html=1;align=center;verticalAlign=middle;resizable=0;points=[];autosize=1;strokeColor=none;fillColor=none;fontSize=20;fontStyle=1" vertex="1" parent="1">
          <mxGeometry x="10" y="10" width="240" height="40" as="geometry" />
        </mxCell>
        <mxCell id="RBS5-hGJfneCesPjs3Ac-37" value="订货系统" style="rounded=0;whiteSpace=wrap;html=1;fontStyle=1;fontSize=16;fillColor=#f5f5f5;strokeColor=#666666;fontColor=#333333;" vertex="1" parent="1">
          <mxGeometry x="20" y="60" width="150" height="60" as="geometry" />
        </mxCell>
        <mxCell id="RBS5-hGJfneCesPjs3Ac-38" value="" style="rounded=0;whiteSpace=wrap;html=1;" vertex="1" parent="1">
          <mxGeometry x="22" y="130" width="150" height="270" as="geometry" />
        </mxCell>
        <mxCell id="RBS5-hGJfneCesPjs3Ac-39" value="1. 订货商品管理" style="rounded=0;whiteSpace=wrap;html=1;flipV=1;flipH=1;" vertex="1" parent="1">
          <mxGeometry x="37" y="140" width="120" height="30" as="geometry" />
        </mxCell>
        <mxCell id="RBS5-hGJfneCesPjs3Ac-40" value="2. 订货店铺管理" style="rounded=0;whiteSpace=wrap;html=1;flipV=1;flipH=1;" vertex="1" parent="1">
          <mxGeometry x="37" y="182" width="120" height="30" as="geometry" />
        </mxCell>
        <mxCell id="RBS5-hGJfneCesPjs3Ac-41" value="3. 新款订单管理" style="rounded=0;whiteSpace=wrap;html=1;flipV=1;flipH=1;" vertex="1" parent="1">
          <mxGeometry x="37" y="224" width="120" height="30" as="geometry" />
        </mxCell>
        <mxCell id="RBS5-hGJfneCesPjs3Ac-42" value="4. 补款订单管理" style="rounded=0;whiteSpace=wrap;html=1;flipV=1;flipH=1;" vertex="1" parent="1">
          <mxGeometry x="37" y="266" width="120" height="30" as="geometry" />
        </mxCell>
        <mxCell id="RBS5-hGJfneCesPjs3Ac-43" value="5. 翻单款订单管理" style="rounded=0;whiteSpace=wrap;html=1;flipV=1;flipH=1;" vertex="1" parent="1">
          <mxGeometry x="37" y="308" width="120" height="30" as="geometry" />
        </mxCell>
        <mxCell id="RBS5-hGJfneCesPjs3Ac-44" value="6.老款订单管理" style="rounded=0;whiteSpace=wrap;html=1;flipV=1;flipH=1;" vertex="1" parent="1">
          <mxGeometry x="37" y="350" width="120" height="30" as="geometry" />
        </mxCell>
        <mxCell id="RBS5-hGJfneCesPjs3Ac-45" value="配货系统" style="rounded=0;whiteSpace=wrap;html=1;fontStyle=1;fontSize=16;fillColor=#f5f5f5;strokeColor=#666666;fontColor=#333333;" vertex="1" parent="1">
          <mxGeometry x="185" y="60" width="150" height="60" as="geometry" />
        </mxCell>
        <mxCell id="RBS5-hGJfneCesPjs3Ac-46" value="补货系统" style="rounded=0;whiteSpace=wrap;html=1;fontStyle=1;fontSize=16;fillColor=#f5f5f5;strokeColor=#666666;fontColor=#333333;" vertex="1" parent="1">
          <mxGeometry x="355" y="60" width="150" height="60" as="geometry" />
        </mxCell>
        <mxCell id="RBS5-hGJfneCesPjs3Ac-47" value="调拨系统" style="rounded=0;whiteSpace=wrap;html=1;fontStyle=1;fontSize=16;fillColor=#f5f5f5;strokeColor=#666666;fontColor=#333333;" vertex="1" parent="1">
          <mxGeometry x="521" y="60" width="150" height="60" as="geometry" />
        </mxCell>
        <mxCell id="RBS5-hGJfneCesPjs3Ac-48" value="" style="rounded=0;whiteSpace=wrap;html=1;" vertex="1" parent="1">
          <mxGeometry x="185" y="130" width="150" height="270" as="geometry" />
        </mxCell>
        <mxCell id="RBS5-hGJfneCesPjs3Ac-49" value="1. 配货计划管理" style="rounded=0;whiteSpace=wrap;html=1;" vertex="1" parent="1">
          <mxGeometry x="200" y="140" width="120" height="30" as="geometry" />
        </mxCell>
        <mxCell id="RBS5-hGJfneCesPjs3Ac-50" value="2.生产入库管理" style="rounded=0;whiteSpace=wrap;html=1;" vertex="1" parent="1">
          <mxGeometry x="200" y="193" width="120" height="30" as="geometry" />
        </mxCell>
        <mxCell id="RBS5-hGJfneCesPjs3Ac-51" value="3. 配货限制参数" style="rounded=0;whiteSpace=wrap;html=1;" vertex="1" parent="1">
          <mxGeometry x="200" y="245" width="120" height="30" as="geometry" />
        </mxCell>
        <mxCell id="RBS5-hGJfneCesPjs3Ac-52" value="4. 配货指令管理" style="rounded=0;whiteSpace=wrap;html=1;" vertex="1" parent="1">
          <mxGeometry x="200" y="298" width="120" height="30" as="geometry" />
        </mxCell>
        <mxCell id="RBS5-hGJfneCesPjs3Ac-53" value="5. 配货需求跟踪" style="rounded=0;whiteSpace=wrap;html=1;" vertex="1" parent="1">
          <mxGeometry x="200" y="350" width="120" height="30" as="geometry" />
        </mxCell>
        <mxCell id="RBS5-hGJfneCesPjs3Ac-54" value="" style="rounded=0;whiteSpace=wrap;html=1;" vertex="1" parent="1">
          <mxGeometry x="355" y="130" width="150" height="270" as="geometry" />
        </mxCell>
        <mxCell id="RBS5-hGJfneCesPjs3Ac-55" value="1. 补货指标参数" style="rounded=0;whiteSpace=wrap;html=1;" vertex="1" parent="1">
          <mxGeometry x="370" y="140" width="120" height="30" as="geometry" />
        </mxCell>
        <mxCell id="RBS5-hGJfneCesPjs3Ac-56" value="3.补货指令管理" style="rounded=0;whiteSpace=wrap;html=1;" vertex="1" parent="1">
          <mxGeometry x="370" y="350" width="120" height="30" as="geometry" />
        </mxCell>
        <mxCell id="RBS5-hGJfneCesPjs3Ac-57" value="2. 门店要货需求" style="rounded=0;whiteSpace=wrap;html=1;" vertex="1" parent="1">
          <mxGeometry x="370" y="245" width="120" height="30" as="geometry" />
        </mxCell>
        <mxCell id="RBS5-hGJfneCesPjs3Ac-58" value="" style="rounded=0;whiteSpace=wrap;html=1;" vertex="1" parent="1">
          <mxGeometry x="521" y="130" width="150" height="270" as="geometry" />
        </mxCell>
        <mxCell id="RBS5-hGJfneCesPjs3Ac-60" value="1. 调拨指标参数" style="rounded=0;whiteSpace=wrap;html=1;" vertex="1" parent="1">
          <mxGeometry x="536" y="140" width="120" height="30" as="geometry" />
        </mxCell>
        <mxCell id="RBS5-hGJfneCesPjs3Ac-61" value="2.调拨指令管理" style="rounded=0;whiteSpace=wrap;html=1;" vertex="1" parent="1">
          <mxGeometry x="536" y="350" width="120" height="30" as="geometry" />
        </mxCell>
      </root>
    </mxGraphModel>
  </diagram>
</mxfile>
